<svg width="25" height="25" viewBox="0 0 25 25" fill="none" xmlns="http://www.w3.org/2000/svg">
<path d="M11.3249 20.3152L11.3242 20.3145C8.6318 17.8731 6.4376 15.8825 4.91046 14.0155C3.38907 12.1554 2.58203 10.479 2.58203 8.67448C2.58203 5.74229 4.87901 3.44531 7.8112 3.44531C9.4723 3.44531 11.0744 4.22103 12.118 5.44657L12.4987 5.8936L12.8794 5.44657C13.923 4.22103 15.5251 3.44531 17.1862 3.44531C20.1184 3.44531 22.4154 5.74229 22.4154 8.67448C22.4154 10.479 21.6083 12.1555 20.0868 14.0169C18.5623 15.882 16.3732 17.8714 13.6873 20.3122L13.6739 20.3243L13.6728 20.3253L12.5 21.3849L11.3249 20.3152Z" fill="white" stroke="#AF35FE"/>
</svg>
