<svg width="20" height="33" viewBox="0 0 31 31" fill="none" xmlns="http://www.w3.org/2000/svg">
<path d="M8.345 30.0261L7.595 28.7271L8.345 30.0261ZM7.15281 29.1297L5.66428 28.9445L5.66428 28.9445L7.15281 29.1297ZM6.20907 24.1151L4.90099 24.8492L4.90546 24.8572L4.91003 24.8651L6.20907 24.1151ZM4.78432 21.5765L6.0924 20.8423L6.08793 20.8344L6.08336 20.8265L4.78432 21.5765ZM27.2037 19.1381L27.9537 20.4371L27.2037 19.1381ZM27.0417 17.6738L27.6532 16.3041L27.6532 16.3041L27.0417 17.6738ZM23.2142 14.2972L21.9057 15.0305L21.9104 15.0389L21.9152 15.0472L23.2142 14.2972ZM21.8616 11.8834L23.1702 11.1501L23.1655 11.1418L23.1607 11.1334L21.8616 11.8834ZM8.32842 8.2227L9.07842 9.52173L8.32842 8.2227ZM17.2687 29.9078L18.0187 31.2068L17.2687 29.9078ZM8.64134 29.3148C8.84455 27.6812 8.72197 25.4676 7.5081 23.3651L4.91003 24.8651C5.70507 26.2422 5.8131 27.7481 5.66428 28.9445L8.64134 29.3148ZM7.51715 23.381L6.0924 20.8423L3.47624 22.3106L4.90099 24.8492L7.51715 23.381ZM27.6532 16.3041C26.5705 15.8207 25.3243 14.9519 24.5133 13.5472L21.9152 15.0472C23.1269 17.1459 24.9461 18.3809 26.4302 19.0435L27.6532 16.3041ZM24.5228 13.5639L23.1702 11.1501L20.5531 12.6167L21.9057 15.0305L24.5228 13.5639ZM23.1607 11.1334C20.0058 5.66909 13.0319 3.77511 7.57842 6.92366L9.07842 9.52173C13.0853 7.20834 18.2294 8.5923 20.5626 12.6334L23.1607 11.1334ZM27.9537 20.4371C28.8983 19.8917 29.1004 18.8873 29.0157 18.2014C28.9313 17.5178 28.523 16.6924 27.6532 16.3041L26.4302 19.0435C26.1146 18.9026 26.0493 18.658 26.0383 18.5691C26.0271 18.4778 26.033 18.0819 26.4537 17.839L27.9537 20.4371ZM6.08336 20.8265C3.79004 16.8543 5.14017 11.7955 9.07842 9.52173L7.57842 6.92366C2.19365 10.0326 0.370275 16.9311 3.48528 22.3265L6.08336 20.8265ZM7.595 28.7271C8.02501 28.4788 8.37306 28.6839 8.43802 28.734C8.50202 28.7834 8.68502 28.9637 8.64134 29.3148L5.66428 28.9445C5.54475 29.9054 6.05856 30.6871 6.60498 31.1089C7.15234 31.5313 8.13441 31.8797 9.095 31.3251L7.595 28.7271ZM26.4537 17.839L7.595 28.7271L9.095 31.3251L27.9537 20.4371L26.4537 17.839ZM17.817 24.5574C18.5618 25.8474 18.1056 27.6926 16.5187 28.6087L18.0187 31.2068C20.88 29.5549 22.078 25.9376 20.4151 23.0574L17.817 24.5574ZM16.5187 28.6087C14.9319 29.5249 13.1058 28.9974 12.3611 27.7074L9.76299 29.2074C11.4259 32.0876 15.1575 32.8588 18.0187 31.2068L16.5187 28.6087ZM8.16407 4.73802C8.60589 5.50329 8.34369 6.48183 7.57842 6.92366L9.07842 9.52173C11.2786 8.25148 12.0324 5.43816 10.7621 3.23802L8.16407 4.73802ZM7.57842 6.92366C6.81316 7.36549 5.83461 7.10329 5.39278 6.33802L2.79471 7.83802C4.06496 10.0382 6.87828 10.792 9.07842 9.52173L7.57842 6.92366ZM5.39278 6.33802C4.95096 5.57275 5.21316 4.5942 5.97843 4.15238L4.47843 1.5543C2.27828 2.82456 1.52445 5.63787 2.79471 7.83802L5.39278 6.33802ZM5.97843 4.15238C6.74369 3.71055 7.72224 3.97275 8.16407 4.73802L10.7621 3.23802C9.49189 1.03787 6.67857 0.284046 4.47843 1.5543L5.97843 4.15238Z" fill="gray" fill-opacity="1"/>
</svg>
