<svg width="31" height="33" viewBox="0 0 31 33" fill="none" xmlns="http://www.w3.org/2000/svg">
<path d="M8.34549 30.0261L7.59549 28.7271L8.34549 30.0261ZM7.1533 29.1297L5.66477 28.9445L5.66477 28.9445L7.1533 29.1297ZM6.20955 24.1151L4.90147 24.8492L4.90595 24.8572L4.91052 24.8651L6.20955 24.1151ZM4.78481 21.5765L6.09289 20.8423L6.08842 20.8344L6.08385 20.8265L4.78481 21.5765ZM27.2041 19.1381L27.9541 20.4371L27.2041 19.1381ZM27.0422 17.6738L27.6537 16.3041L27.6537 16.3041L27.0422 17.6738ZM23.2147 14.2972L21.9062 15.0305L21.9109 15.0389L21.9157 15.0472L23.2147 14.2972ZM21.8621 11.8834L23.1707 11.1501L23.166 11.1418L23.1611 11.1334L21.8621 11.8834ZM8.32891 8.2227L9.07891 9.52173L8.32891 8.2227ZM17.2692 29.9078L18.0192 31.2068L17.2692 29.9078ZM8.64183 29.3148C8.84504 27.6812 8.72246 25.4676 7.50859 23.3651L4.91052 24.8651C5.70556 26.2422 5.81359 27.7481 5.66477 28.9445L8.64183 29.3148ZM7.51763 23.381L6.09289 20.8423L3.47673 22.3106L4.90147 24.8492L7.51763 23.381ZM27.6537 16.3041C26.571 15.8207 25.3248 14.9519 24.5138 13.5472L21.9157 15.0472C23.1274 17.1459 24.9466 18.3809 26.4307 19.0435L27.6537 16.3041ZM24.5233 13.5639L23.1707 11.1501L20.5536 12.6167L21.9062 15.0305L24.5233 13.5639ZM23.1611 11.1334C20.0063 5.66909 13.0324 3.77511 7.57891 6.92366L9.07891 9.52173C13.0858 7.20834 18.2299 8.5923 20.5631 12.6334L23.1611 11.1334ZM27.9541 20.4371C28.8988 19.8917 29.1009 18.8873 29.0162 18.2014C28.9318 17.5178 28.5235 16.6924 27.6537 16.3041L26.4307 19.0435C26.1151 18.9026 26.0498 18.658 26.0388 18.5691C26.0275 18.4778 26.0335 18.0819 26.4541 17.839L27.9541 20.4371ZM6.08385 20.8265C3.79053 16.8543 5.14066 11.7955 9.07891 9.52173L7.57891 6.92366C2.19414 10.0326 0.370763 16.9311 3.48577 22.3265L6.08385 20.8265ZM7.59549 28.7271C8.0255 28.4788 8.37355 28.6839 8.43851 28.734C8.50251 28.7834 8.6855 28.9637 8.64183 29.3148L5.66477 28.9445C5.54524 29.9054 6.05904 30.6871 6.60546 31.1089C7.15283 31.5313 8.1349 31.8797 9.09549 31.3251L7.59549 28.7271ZM26.4541 17.839L7.59549 28.7271L9.09549 31.3251L27.9541 20.4371L26.4541 17.839ZM17.8175 24.5574C18.5623 25.8474 18.1061 27.6926 16.5192 28.6087L18.0192 31.2068C20.8805 29.5549 22.0785 25.9376 20.4156 23.0574L17.8175 24.5574ZM16.5192 28.6087C14.9324 29.5249 13.1063 28.9974 12.3616 27.7074L9.76347 29.2074C11.4264 32.0876 15.158 32.8588 18.0192 31.2068L16.5192 28.6087ZM8.16455 4.73802C8.60638 5.50329 8.34418 6.48183 7.57891 6.92366L9.07891 9.52173C11.2791 8.25148 12.0329 5.43816 10.7626 3.23802L8.16455 4.73802ZM7.57891 6.92366C6.81364 7.36549 5.8351 7.10329 5.39327 6.33802L2.7952 7.83802C4.06545 10.0382 6.87877 10.792 9.07891 9.52173L7.57891 6.92366ZM5.39327 6.33802C4.95145 5.57275 5.21365 4.5942 5.97891 4.15238L4.47891 1.5543C2.27877 2.82456 1.52494 5.63787 2.7952 7.83802L5.39327 6.33802ZM5.97891 4.15238C6.74418 3.71055 7.72273 3.97275 8.16455 4.73802L10.7626 3.23802C9.49238 1.03787 6.67906 0.284046 4.47891 1.5543L5.97891 4.15238Z" fill="white"/>
</svg>
