<svg width="24" height="24" viewBox="0 0 24 24" fill="none" xmlns="http://www.w3.org/2000/svg">
<path d="M7.5 16C8.05 16 8.5 16.45 8.5 17C8.5 18.1 7.6 19 6.5 19C6.33 19 6.17 18.98 6 18.95C6.31 18.4 6.5 17.74 6.5 17C6.5 16.45 6.95 16 7.5 16ZM19.17 3C18.91 3 18.66 3.1 18.46 3.29L9.5 12.25L12.25 15L21.21 6.04C21.6 5.65 21.6 5.02 21.21 4.63L19.87 3.29C19.67 3.09 19.42 3 19.17 3ZM7.5 14C5.84 14 4.5 15.34 4.5 17C4.5 18.31 3.34 19 2.5 19C3.42 20.22 4.99 21 6.5 21C8.71 21 10.5 19.21 10.5 17C10.5 15.34 9.16 14 7.5 14Z" fill="white"/>
</svg>