<svg width="17" height="17" viewBox="0 0 17 17" fill="none" xmlns="http://www.w3.org/2000/svg">
<path d="M14.875 11.4609V6.44579C14.875 5.34122 13.9796 4.44579 12.875 4.44579H9.04997C8.47521 4.44579 7.92824 4.19852 7.54854 3.76704L7.32646 3.51468C6.94676 3.08321 6.39979 2.83594 5.82504 2.83594H3.73485C2.84575 2.83594 2.125 3.55669 2.125 4.44579V11.4609C2.125 12.5655 3.02043 13.4609 4.125 13.4609H12.875C13.9796 13.4609 14.875 12.5655 14.875 11.4609Z" stroke="#CCCCCC"/>
<path d="M10.625 8.5C10.625 9.67361 9.67361 10.625 8.5 10.625C7.32639 10.625 6.375 9.67361 6.375 8.5C6.375 7.32639 7.32639 6.375 8.5 6.375C9.67361 6.375 10.625 7.32639 10.625 8.5Z" stroke="#CCCCCC"/>
<path d="M4.25 4.96094H5.66667" stroke="#CCCCCC" stroke-linecap="round"/>
</svg>
