<svg width="80" height="80" viewBox="0 0 80 80" fill="none" xmlns="http://www.w3.org/2000/svg">
<g clip-path="url(#clip0_94_3383)">
<path d="M62.8571 0H17.1429C7.67512 0 0 7.67512 0 17.1429V62.8571C0 72.3249 7.67512 80 17.1429 80H62.8571C72.3249 80 80 72.3249 80 62.8571V17.1429C80 7.67512 72.3249 0 62.8571 0Z" fill="#707070"/>
<path d="M52.1143 24.2285C52.1143 17.538 46.6906 12.1143 40 12.1143C33.3095 12.1143 27.8857 17.538 27.8857 24.2285C27.8857 30.9191 33.3095 36.3428 40 36.3428C46.6906 36.3428 52.1143 30.9191 52.1143 24.2285Z" fill="#A2A2A2"/>
<path d="M61.6857 50.9142C61.0857 45.4571 56.5142 41.2285 50.8857 41.2285H29.0571C23.4571 41.2285 18.8857 45.4857 18.2571 50.9142H18.1428V66.9714C18.1428 67.4857 18.5428 67.8857 19.0571 67.8857H60.8857C61.4 67.8857 61.8 67.4857 61.8 66.9714V50.9142H61.6857Z" fill="#A2A2A2"/>
</g>
<defs>
<clipPath id="clip0_94_3383">
<rect width="80" height="80" fill="white"/>
</clipPath>
</defs>
</svg>
