<svg width="50" height="50" viewBox="0 0 50 50" fill="none" xmlns="http://www.w3.org/2000/svg">
<g filter="url(#filter0_d_1148_7499)">
<path d="M25 23.85C29.1974 23.85 32.6 20.4474 32.6 16.25C32.6 12.0526 29.1974 8.65 25 8.65C20.8026 8.65 17.4 12.0526 17.4 16.25C17.4 20.4474 20.8026 23.85 25 23.85Z" fill="#D9D9D9"/>
<path d="M25 40C35.4934 40 44 31.4934 44 21C44 10.5066 35.4934 2 25 2C14.5066 2 6 10.5066 6 21C6 31.4934 14.5066 40 25 40Z" fill="#D9D9D9"/>
<path d="M12.301 35.133C13.4568 32.4099 16.1554 30.5 19.3 30.5H30.7C33.8446 30.5 36.5432 32.4099 37.699 35.133M32.6 16.25C32.6 20.4474 29.1974 23.85 25 23.85C20.8026 23.85 17.4 20.4474 17.4 16.25C17.4 12.0526 20.8026 8.65 25 8.65C29.1974 8.65 32.6 12.0526 32.6 16.25ZM44 21C44 31.4934 35.4934 40 25 40C14.5066 40 6 31.4934 6 21C6 10.5066 14.5066 2 25 2C35.4934 2 44 10.5066 44 21Z" stroke="white" stroke-width="3" stroke-linecap="round" stroke-linejoin="round"/>
</g>
<defs>
<filter id="filter0_d_1148_7499" x="0.5" y="0.5" width="49" height="49" filterUnits="userSpaceOnUse" color-interpolation-filters="sRGB">
<feFlood flood-opacity="0" result="BackgroundImageFix"/>
<feColorMatrix in="SourceAlpha" type="matrix" values="0 0 0 0 0 0 0 0 0 0 0 0 0 0 0 0 0 0 127 0" result="hardAlpha"/>
<feOffset dy="4"/>
<feGaussianBlur stdDeviation="2"/>
<feComposite in2="hardAlpha" operator="out"/>
<feColorMatrix type="matrix" values="0 0 0 0 0 0 0 0 0 0 0 0 0 0 0 0 0 0 0.25 0"/>
<feBlend mode="normal" in2="BackgroundImageFix" result="effect1_dropShadow_1148_7499"/>
<feBlend mode="normal" in="SourceGraphic" in2="effect1_dropShadow_1148_7499" result="shape"/>
</filter>
</defs>
</svg>
