<svg width="184" height="22" viewBox="0 0 184 22" fill="none" xmlns="http://www.w3.org/2000/svg">
<path d="M2.64844 21H0.1875V1.20312H2.64844V21ZM12.0831 8.12109H8.96594V16.7344C8.95682 17.6003 9.12544 18.1882 9.4718 18.498C9.82727 18.7988 10.3058 18.9492 10.9073 18.9492C11.2628 18.9492 11.6046 18.9355 11.9327 18.9082L12.3019 18.8945V21.082C11.8097 21.1549 11.2628 21.1914 10.6613 21.1914C9.96854 21.1914 9.31229 21.0501 8.6925 20.7676C8.07271 20.4759 7.56685 20.0384 7.17492 19.4551C6.78299 18.8717 6.58703 18.1654 6.58703 17.3359V8.12109H4.34484V6.15234H6.58703V2.59766H8.96594V6.15234H12.0831V8.12109ZM15.9397 8.66797H13.9163L15.4202 1.23047H18.0725L15.9397 8.66797ZM26.0306 10.0078C25.8574 9.36979 25.5202 8.87305 25.0189 8.51758C24.5267 8.15299 23.8614 7.96615 23.0228 7.95703C22.4212 7.95703 21.8835 8.05729 21.4095 8.25781C20.9356 8.45833 20.5619 8.73177 20.2884 9.07812C20.015 9.41536 19.8783 9.78906 19.8783 10.1992C19.8874 10.6914 20.097 11.1107 20.5072 11.457C20.9173 11.7943 21.5554 12.0677 22.4212 12.2773L24.6361 12.8242C25.9577 13.1341 26.9466 13.6263 27.6029 14.3008C28.2591 14.9661 28.5918 15.8138 28.6009 16.8438C28.5918 17.7096 28.3594 18.4798 27.9037 19.1543C27.4479 19.8288 26.7826 20.3574 25.9076 20.7402C25.0326 21.1139 23.989 21.3008 22.7767 21.3008C21.1179 21.3099 19.8008 20.9544 18.8255 20.2344C17.8503 19.5143 17.2624 18.4753 17.0619 17.1172H19.5228C19.7962 18.5391 20.8444 19.25 22.6673 19.25C23.752 19.25 24.6042 19.0495 25.224 18.6484C25.8529 18.2383 26.1673 17.6823 26.1673 16.9805C26.1673 16.4518 25.9714 16.0143 25.5795 15.668C25.1875 15.3216 24.5723 15.0482 23.7337 14.8477L21.4916 14.3281C20.2064 14.0273 19.222 13.5352 18.5384 12.8516C17.864 12.168 17.5267 11.3294 17.5267 10.3359C17.5267 9.4974 17.7546 8.74544 18.2103 8.08008C18.6752 7.41471 19.3223 6.89518 20.1517 6.52148C20.9903 6.14779 21.9473 5.96094 23.0228 5.96094C24.0254 5.96094 24.9095 6.12956 25.6752 6.4668C26.4408 6.80404 27.0469 7.27799 27.4935 7.88867C27.9492 8.49935 28.2272 9.20573 28.3275 10.0078H26.0306ZM45.612 1.20312L52.2839 17.5H52.53L59.2019 1.20312H62.155V21H59.8308V6.04297H59.6394L53.487 21H51.2995L45.1472 6.04297H44.9831V21H42.6589V1.20312H45.612ZM82.1444 11.1016C82.1444 13.1523 81.7707 14.9479 81.0233 16.4883C80.2759 18.0195 79.2368 19.1999 77.9061 20.0293C76.5845 20.8587 75.0806 21.2734 73.3944 21.2734C71.6991 21.2734 70.186 20.8587 68.8553 20.0293C67.5337 19.1999 66.4992 18.0195 65.7518 16.4883C65.0135 14.9479 64.6444 13.1523 64.6444 11.1016C64.6444 9.05078 65.0135 7.25977 65.7518 5.72852C66.4992 4.18815 67.5337 3.00326 68.8553 2.17383C70.186 1.3444 71.6991 0.929688 73.3944 0.929688C75.0806 0.929688 76.5845 1.3444 77.9061 2.17383C79.2368 3.00326 80.2759 4.18815 81.0233 5.72852C81.7707 7.25977 82.1444 9.05078 82.1444 11.1016ZM67.0233 11.1016C67.0233 12.7513 67.3013 14.1686 67.8573 15.3535C68.4133 16.5384 69.1698 17.4362 70.1268 18.0469C71.0929 18.6576 72.1821 18.9674 73.3944 18.9766C74.6066 18.9674 75.6913 18.6576 76.6483 18.0469C77.6144 17.4362 78.3755 16.5384 78.9315 15.3535C79.4875 14.1686 79.7655 12.7513 79.7655 11.1016C79.7655 9.44271 79.4875 8.02083 78.9315 6.83594C78.3755 5.65104 77.6144 4.75326 76.6483 4.14258C75.6913 3.5319 74.6066 3.22656 73.3944 3.22656C72.1821 3.22656 71.0929 3.5319 70.1268 4.14258C69.1698 4.75326 68.4133 5.65104 67.8573 6.83594C67.3013 8.02083 67.0233 9.44271 67.0233 11.1016ZM90.4033 17.8008H90.622L96.4736 1.20312H99.0713L91.8252 21H89.2275L81.9814 1.20312H84.5791L90.4033 17.8008ZM103.092 21H100.631V1.20312H103.092V21ZM106.347 1.20312H118.351V3.39062H108.808V10.0078H117.722V12.168H108.808V18.8125H118.488V21H106.347V1.20312ZM125.927 1.20312H140.857V3.39062H134.65V21H132.162V3.39062H125.927V1.20312ZM145.479 21H143.018V1.20312H145.479V21ZM151.687 1.20312L158.359 17.5H158.605L165.277 1.20312H168.23V21H165.906V6.04297H165.715L159.562 21H157.375L151.222 6.04297H151.058V21H148.734V1.20312H151.687ZM171.485 1.20312H183.489V3.39062H173.946V10.0078H182.86V12.168H173.946V18.8125H183.626V21H171.485V1.20312Z" fill="#AF35FE"/>
</svg>
