<svg width="183" height="20" viewBox="0 0 183 20" fill="none" xmlns="http://www.w3.org/2000/svg">
<path d="M3.496 0.423999V19.048H0.232V0.423999H3.496ZM10.3184 1.576V5.872H13.2704V8.08H10.3184V15.304C10.3184 16.624 10.8464 17.2 11.9504 17.2C12.4544 17.2 12.9344 17.176 13.4864 17.056L13.3664 19.216C12.5264 19.336 11.8064 19.36 11.0144 19.36C8.51838 19.36 7.34238 18.28 7.34238 15.856V8.08H5.37437V5.872H7.34238V2.248L10.3184 1.576ZM17.9956 0.423999V3.664L16.2676 7.408H14.7316L16.2676 3.664H14.5636V0.423999H17.9956ZM30.1227 8.944L27.2667 9.76C26.9307 8.344 26.0907 7.648 24.9147 7.648C23.6187 7.648 22.8507 8.272 22.8507 9.064C22.8507 10.096 23.2827 10.528 25.2027 11.032L26.3067 11.32C29.3067 12.112 30.3867 13.192 30.3867 15.328C30.3867 17.68 28.6347 19.384 25.0587 19.384C22.2747 19.384 20.4027 18.4 19.5627 16.096L22.3707 15.112C22.8027 16.6 23.8587 17.32 25.1307 17.32C26.8587 17.32 27.5307 16.576 27.5307 15.616C27.5307 14.536 27.0747 14.248 24.9867 13.648L23.8827 13.336C21.0267 12.568 20.0187 11.536 20.0187 9.328C20.0187 7.216 21.7467 5.584 24.9627 5.584C27.7227 5.584 29.4027 6.808 30.1227 8.944ZM62.8951 0.423999V19.048H59.7991V9.64C59.7991 7.312 59.8231 5.272 59.8471 3.064H59.5111C59.0311 5.2 58.5991 7.12 57.9751 9.4L55.4551 19.048H51.6631L49.2151 9.52C48.6391 7.36 48.1831 5.344 47.6311 3.064H47.2951C47.3431 5.224 47.3671 7.384 47.3671 9.688V19.048H44.5111V0.423999H49.7671L52.1191 9.928C52.5991 11.872 53.0791 14.032 53.4631 16.072H53.7991C54.3031 14.032 54.6871 12.112 55.2391 9.976L57.6151 0.423999H62.8951ZM73.3626 0.111999C78.1386 0.111999 81.3306 3.568 81.3306 9.736C81.3306 15.88 78.1146 19.408 73.3386 19.408C68.5626 19.408 65.3706 15.928 65.3706 9.784C65.3706 3.616 68.6106 0.111999 73.3626 0.111999ZM73.3626 2.608C70.6266 2.608 68.8026 4.984 68.8026 9.76C68.8026 14.512 70.6266 16.912 73.3626 16.912C76.0986 16.912 77.8986 14.512 77.8986 9.76C77.8986 4.984 76.0986 2.608 73.3626 2.608ZM97.0054 0.423999L91.3174 19.048H87.2854L81.6454 0.423999H85.1254L87.5494 9.184C88.2454 11.608 88.7254 13.792 89.3014 16.072H89.6374C90.1654 13.84 90.6934 11.68 91.3654 9.28L93.8134 0.423999H97.0054ZM102.083 0.423999V19.048H98.8186V0.423999H102.083ZM117.881 0.423999V2.992H108.833V7.912H115.673V10.48H108.833V16.48H118.073V19.048H105.593V0.423999H117.881ZM138.895 0.423999V3.04H133.351V19.048H130.087V3.04H124.591V0.423999H138.895ZM144.18 0.423999V19.048H140.916V0.423999H144.18ZM166.074 0.423999V19.048H162.978V9.64C162.978 7.312 163.002 5.272 163.026 3.064H162.69C162.21 5.2 161.778 7.12 161.154 9.4L158.634 19.048H154.842L152.394 9.52C151.818 7.36 151.362 5.344 150.81 3.064H150.474C150.522 5.224 150.546 7.384 150.546 9.688V19.048H147.69V0.423999H152.946L155.298 9.928C155.778 11.872 156.258 14.032 156.642 16.072H156.978C157.482 14.032 157.866 12.112 158.418 9.976L160.794 0.423999H166.074ZM181.87 0.423999V2.992H172.822V7.912H179.662V10.48H172.822V16.48H182.062V19.048H169.582V0.423999H181.87Z" fill="#AF35FE"/>
</svg>
