<svg width="39" height="39" viewBox="0 0 39 39" fill="none" xmlns="http://www.w3.org/2000/svg">
<g filter="url(#filter0_dd_1148_7507)">
<path d="M5.5 14.8224C5.5 20.454 6.51148 23.6204 8.41077 25.4518C10.323 27.2957 13.5036 28.1484 18.8261 28.1484C24.1486 28.1484 27.3292 27.2957 29.2414 25.4518C31.1407 23.6204 32.1522 20.454 32.1522 14.8224C32.1522 9.19073 31.1407 6.02433 29.2414 4.19288C27.3292 2.34897 24.1486 1.49626 18.8261 1.49626C13.5036 1.49626 10.323 2.34897 8.41077 4.19288C6.51148 6.02433 5.5 9.19073 5.5 14.8224Z" stroke="white" stroke-width="3" stroke-linecap="round" stroke-linejoin="round"/>
<path d="M33.6518 29.6508L30.2822 26.2812" stroke="white" stroke-width="2" stroke-linecap="round" stroke-linejoin="round"/>
</g>
<defs>
<filter id="filter0_dd_1148_7507" x="0" y="0" width="39" height="39" filterUnits="userSpaceOnUse" color-interpolation-filters="sRGB">
<feFlood flood-opacity="0" result="BackgroundImageFix"/>
<feColorMatrix in="SourceAlpha" type="matrix" values="0 0 0 0 0 0 0 0 0 0 0 0 0 0 0 0 0 0 127 0" result="hardAlpha"/>
<feOffset dy="4"/>
<feGaussianBlur stdDeviation="2"/>
<feComposite in2="hardAlpha" operator="out"/>
<feColorMatrix type="matrix" values="0 0 0 0 0 0 0 0 0 0 0 0 0 0 0 0 0 0 0.25 0"/>
<feBlend mode="normal" in2="BackgroundImageFix" result="effect1_dropShadow_1148_7507"/>
<feColorMatrix in="SourceAlpha" type="matrix" values="0 0 0 0 0 0 0 0 0 0 0 0 0 0 0 0 0 0 127 0" result="hardAlpha"/>
<feOffset dy="4"/>
<feGaussianBlur stdDeviation="2"/>
<feComposite in2="hardAlpha" operator="out"/>
<feColorMatrix type="matrix" values="0 0 0 0 0 0 0 0 0 0 0 0 0 0 0 0 0 0 0.25 0"/>
<feBlend mode="normal" in2="effect1_dropShadow_1148_7507" result="effect2_dropShadow_1148_7507"/>
<feBlend mode="normal" in="SourceGraphic" in2="effect2_dropShadow_1148_7507" result="shape"/>
</filter>
</defs>
</svg>
