<svg width="17" height="17" viewBox="0 0 17 17" fill="none" xmlns="http://www.w3.org/2000/svg">
<path d="M7.69827 1.29286C7.97499 0.843414 8.37931 1.06905 8.40878 1.59603C8.56139 4.32415 8.94249 12.1349 8.33659 12.6613C8.334 12.6636 8.33452 12.6631 8.33189 12.6653C8.2478 12.7356 4.51378 15.8527 3.83377 15.2517C3.31287 14.7914 4.05878 12.0144 4.45138 10.6939C4.57539 10.2768 4.42772 9.82468 4.08198 9.56052C3.0469 8.76964 1 7.11956 1 6.43835C1 5.74514 3.89044 5.54397 5.276 5.48735C5.70862 5.46968 6.08695 5.18808 6.22637 4.77815C6.54352 3.84568 7.1436 2.19376 7.69827 1.29286Z" fill="#AF35FE"/>
<path d="M7.69827 1.29286C7.97499 0.843414 8.37931 1.06905 8.40878 1.59603C8.56139 4.32415 8.94249 12.1349 8.33659 12.6613C8.334 12.6636 8.33452 12.6631 8.33189 12.6653C8.2478 12.7356 4.51378 15.8527 3.83377 15.2517C3.31287 14.7914 4.05878 12.0144 4.45138 10.6939C4.57539 10.2768 4.42772 9.82468 4.08198 9.56052C3.0469 8.76964 1 7.11956 1 6.43835C1 5.74514 3.89044 5.54397 5.276 5.48735C5.70862 5.46968 6.08695 5.18808 6.22637 4.77815C6.54352 3.84568 7.1436 2.19376 7.69827 1.29286Z" stroke="#AF35FE" stroke-width="2" stroke-linecap="round" stroke-linejoin="round"/>
</svg>
