<svg width="18" height="18" viewBox="0 0 18 18" fill="none" xmlns="http://www.w3.org/2000/svg">
<path d="M9.02013 1.66406C9.66984 1.66406 10.6684 4.43981 11.1097 5.77055C11.247 6.18429 11.6273 6.46973 12.0628 6.48761C13.4508 6.54456 16.3327 6.74617 16.3327 7.43835C16.3327 8.11719 14.3 9.75817 13.2615 10.5522C12.9106 10.8206 12.7648 11.2823 12.8976 11.7038C13.3149 13.0281 14.0999 15.7925 13.5405 16.2517C12.9929 16.7013 10.7712 15.0703 9.6513 14.1905C9.26955 13.8905 8.72884 13.8902 8.34702 14.19C7.22681 15.0698 5.00855 16.7014 4.49978 16.2517C3.97889 15.7914 4.72479 13.0144 5.1174 11.6939C5.2414 11.2768 5.09373 10.8247 4.748 10.5605C3.71291 9.76964 1.66602 8.11956 1.66602 7.43835C1.66602 6.74514 4.55646 6.54397 5.94201 6.48736C6.37464 6.46968 6.75296 6.18808 6.89238 5.77815C7.34396 4.45042 8.36918 1.66406 9.02013 1.66406Z" fill="#AF35FE" stroke="#AF35FE" stroke-width="2" stroke-linecap="round" stroke-linejoin="round"/>
</svg>
